<svg width="32" height="32" viewBox="0 0 29 29" version="1.1" aria-hidden="false">
<path d="M16 3C14.2928 3 12.6023 3.33135 11.0251 3.97513C9.44788 4.61891 8.01477 5.56251 6.80761 6.75206C4.36964 9.15447 3 12.4128 3 15.8103C3 21.4725 6.731 26.2764 11.892 27.9802C12.542 28.0826 12.75 27.6855 12.75 27.3396V25.1747C9.149 25.9433 8.382 23.4581 8.382 23.4581C7.784 21.9721 6.939 21.575 6.939 21.575C5.756 20.7807 7.03 20.8064 7.03 20.8064C8.33 20.896 9.019 22.1258 9.019 22.1258C10.15 24.073 12.061 23.4965 12.802 23.1891C12.919 22.3564 13.257 21.7928 13.621 21.4725C10.735 21.1522 7.706 20.0506 7.706 15.1698C7.706 13.7479 8.2 12.6078 9.045 11.6982C8.915 11.378 8.46 10.0457 9.175 8.31629C9.175 8.31629 10.267 7.97041 12.75 9.62294C13.777 9.34112 14.895 9.2002 16 9.2002C17.105 9.2002 18.223 9.34112 19.25 9.62294C21.733 7.97041 22.825 8.31629 22.825 8.31629C23.54 10.0457 23.085 11.378 22.955 11.6982C23.8 12.6078 24.294 13.7479 24.294 15.1698C24.294 20.0634 21.252 21.1394 18.353 21.4597C18.821 21.8568 19.25 22.6382 19.25 23.8296V27.3396C19.25 27.6855 19.458 28.0955 20.121 27.9802C25.282 26.2636 29 21.4725 29 15.8103C29 14.1281 28.6637 12.4623 28.0104 10.908C27.3571 9.35381 26.3995 7.94161 25.1924 6.75206C23.9852 5.56251 22.5521 4.61891 20.9749 3.97513C19.3977 3.33135 17.7072 3 16 3Z"/>
</svg>
