<svg width="32" height="32" viewBox="0 0 24 24" version="1.1" aria-hidden="false">
<path d="M21.933 7.877c-.048-1.064-.219-1.79-.465-2.429a4.874 4.874 0 0 0-1.154-1.77 4.959 4.959 0 0 0-1.77-1.154c-.635-.246-1.361-.417-2.429-.464C15.052 2.012 14.71 2 11.996 2c-2.714 0-3.056.012-4.123.06-1.063.047-1.79.218-2.425.464-.658.254-1.214.599-1.77 1.155a4.959 4.959 0 0 0-1.154 1.77c-.246.634-.417 1.36-.464 2.428C2.012 8.94 2 9.282 2 11.996c0 2.714.012 3.056.06 4.123.047 1.064.218 1.79.464 2.429.254.658.599 1.214 1.155 1.77a4.958 4.958 0 0 0 1.77 1.154c.634.246 1.36.417 2.428.464 1.067.048 1.405.06 4.123.06s3.056-.012 4.123-.06c1.063-.047 1.79-.218 2.429-.464a4.872 4.872 0 0 0 1.77-1.155 4.956 4.956 0 0 0 1.154-1.77c.246-.634.417-1.36.465-2.428.047-1.067.059-1.405.059-4.123s-.016-3.056-.067-4.119Zm-1.798 8.159c-.044.976-.206 1.504-.345 1.857a3.103 3.103 0 0 1-.746 1.15c-.35.35-.683.568-1.151.747-.353.135-.881.301-1.857.345-1.056.047-1.37.06-4.04.06s-2.984-.012-4.04-.06c-.976-.044-1.504-.207-1.857-.345a3.103 3.103 0 0 1-1.15-.746 3.054 3.054 0 0 1-.747-1.151c-.135-.353-.301-.881-.345-1.857-.047-1.056-.06-1.37-.06-4.04s.013-2.984.06-4.04c.044-.976.206-1.504.345-1.857.183-.468.397-.801.746-1.15.35-.35.683-.568 1.151-.747.353-.135.881-.301 1.857-.345 1.056-.047 1.37-.06 4.04-.06s2.984.013 4.04.06c.976.044 1.504.206 1.857.345.468.183.801.397 1.15.746.35.35.568.683.747 1.151.135.353.301.881.345 1.857.047 1.056.06 1.37.06 4.04s-.012 2.988-.06 4.04Zm-8.139-9.17a5.136 5.136 0 1 0 .002 10.27 5.136 5.136 0 0 0-.002-10.27Zm0 8.463a3.333 3.333 0 1 1 0-6.665 3.333 3.333 0 0 1 0 6.665Zm6.536-8.67a1.197 1.197 0 1 1-2.397 0 1.197 1.197 0 1 1 2.397 0Z"></path>
</svg>