<svg width="32" height="32" viewBox="0 0 32 32" fill="none" xmlns="http://www.w3.org/2000/svg">
<g clip-path="url(#clip0_13_4)">
<path d="M16 0C18.1012 0 20.1817 0.413852 22.1229 1.21793C24.0641 2.022 25.828 3.20055 27.3137 4.68629C28.7994 6.17203 29.978 7.93586 30.7821 9.87706C31.5861 11.8183 32 13.8989 32 16C32 20.2435 30.3143 24.3131 27.3137 27.3137C24.3131 30.3143 20.2435 32 16 32C13.8989 32 11.8183 31.5861 9.87706 30.7821C7.93586 29.978 6.17203 28.7994 4.68629 27.3137C1.68571 24.3131 0 20.2435 0 16C0 11.7565 1.68571 7.68687 4.68629 4.68629C7.68687 1.68571 11.7565 0 16 0ZM16 3.2C14.9391 3.2 13.9217 3.62143 13.1716 4.37157C12.4214 5.12172 12 6.13913 12 7.2C12 8.26087 12.4214 9.27828 13.1716 10.0284C13.9217 10.7786 14.9391 11.2 16 11.2C17.0609 11.2 18.0783 10.7786 18.8284 10.0284C19.5786 9.27828 20 8.26087 20 7.2C20 6.13913 19.5786 5.12172 18.8284 4.37157C18.0783 3.62143 17.0609 3.2 16 3.2ZM3.84 12.048C3.51191 13.0558 3.59722 14.1527 4.07721 15.0977C4.55721 16.0426 5.39262 16.7585 6.4 17.088C8.512 17.76 10.768 16.624 11.44 14.512C11.7681 13.5042 11.6828 12.4073 11.2028 11.4623C10.7228 10.5174 9.88738 9.8015 8.88 9.472C6.784 8.8 4.512 9.936 3.84 12.048ZM28.176 12C27.488 9.936 25.232 8.8 23.136 9.472C22.6344 9.6315 22.1694 9.88885 21.7679 10.2292C21.3664 10.5695 21.0363 10.986 20.7968 11.4547C20.5572 11.9234 20.413 12.4349 20.3723 12.9596C20.3317 13.4844 20.3955 14.012 20.56 14.512C20.8895 15.5194 21.6054 16.3548 22.5503 16.8348C23.4953 17.3148 24.5922 17.4001 25.6 17.072C27.696 16.4 28.848 14.128 28.176 12ZM8.496 26.336C10.272 27.648 12.8 27.248 14.08 25.456C15.376 23.664 14.976 21.168 13.184 19.872C12.3257 19.2514 11.2568 18.9957 10.2105 19.1606C9.16433 19.3254 8.22584 19.8976 7.6 20.752C6.304 22.544 6.704 25.04 8.496 26.336ZM23.52 26.336C25.312 25.04 25.712 22.544 24.416 20.752C24.1085 20.3258 23.7197 19.9647 23.272 19.6895C22.8242 19.4144 22.3264 19.2306 21.8073 19.1488C21.2882 19.0669 20.758 19.0887 20.2473 19.2129C19.7367 19.337 19.2556 19.561 18.832 19.872C18.4061 20.1795 18.045 20.568 17.7695 21.0152C17.4939 21.4624 17.3092 21.9595 17.226 22.4782C17.1427 22.9968 17.1626 23.5268 17.2845 24.0378C17.4063 24.5488 17.6277 25.0307 17.936 25.456C19.2 27.248 21.744 27.632 23.52 26.336ZM16 13.6C15.3635 13.6 14.753 13.8529 14.3029 14.3029C13.8529 14.753 13.6 15.3635 13.6 16C13.6 16.6365 13.8529 17.247 14.3029 17.6971C14.753 18.1471 15.3635 18.4 16 18.4C16.6365 18.4 17.247 18.1471 17.6971 17.6971C18.1471 17.247 18.4 16.6365 18.4 16C18.4 15.3635 18.1471 14.753 17.6971 14.3029C17.247 13.8529 16.6365 13.6 16 13.6Z" fill="black"/>
</g>
<defs>
<clipPath id="clip0_13_4">
<rect width="32" height="32" fill="white"/>
</clipPath>
</defs>
</svg>
