<svg width="32" height="32" viewBox="0 0 24 24" version="1.1" aria-hidden="false">
<path d="M22 5.888c-.697.298-1.492.496-2.388.596.796-.497 1.493-1.292 1.791-2.285-.796.496-1.692.795-2.587.993C18.119 4.497 17.025 4 15.83 4c-2.289 0-4.08 1.788-4.08 4.073 0 .298 0 .596.1.895-3.383-.1-6.368-1.789-8.358-4.173a3.578 3.578 0 0 0-.597 1.987c0 1.39.696 2.682 1.79 3.378-.596 0-1.193-.199-1.79-.497v.1c0 1.986 1.393 3.576 3.283 3.973-.298.1-.696.1-1.094.1-.299 0-.498 0-.796-.1a3.971 3.971 0 0 0 3.78 2.782c-1.392 1.093-3.183 1.788-5.074 1.788-.298 0-.696 0-.995-.099 1.791 1.192 3.98 1.788 6.269 1.788 7.562.2 11.741-6.06 11.741-11.425v-.497c.796-.596 1.393-1.39 1.99-2.185Z"></path>
</svg>