<svg height="32px" viewBox="0 0 32 32" xmlns="http://www.w3.org/2000/svg">
<g clip-path="url(#clip0_14_5)">
<path d="M29.8954 13.2925L29.9017 13.2987C31.3613 14.7317 31.3642 17.2192 29.9218 18.6838L29.9079 18.6979L29.9056 18.7004L29.9028 18.7032C29.8975 18.7083 29.889 18.7165 29.8794 18.7261L28.7426 19.8622C28.1085 20.4958 27.7449 21.3575 27.7449 22.2672V23.9136C27.7449 26.0173 26.0313 27.7315 23.9254 27.7315H22.2762C21.3695 27.7315 20.5071 28.092 19.8721 28.7265L18.7193 29.8786C17.2252 31.3742 14.8134 31.3677 13.3091 29.8933L12.1437 28.727C11.5087 28.0925 10.6459 27.7315 9.7391 27.7315H8.0899C5.98405 27.7315 4.2704 26.0173 4.2704 23.9136V22.2672C4.2704 21.3546 3.90521 20.5005 3.28506 19.8587L3.27653 19.8498L3.26779 19.8412L2.11962 18.7098C2.11892 18.7091 2.11822 18.7084 2.11753 18.7077C0.635191 17.2254 0.623837 14.8017 2.10553 13.3085C2.10589 13.3081 2.10625 13.3078 2.10661 13.3074L3.27276 12.1405C3.90906 11.5046 4.2704 10.642 4.2704 9.72103V8.08896C4.2704 5.9862 5.98318 4.27435 8.0899 4.27435H9.7391C10.6493 4.27435 11.5106 3.90819 12.1432 3.27607L13.296 2.12402L13.2987 2.1213C14.7794 0.630262 17.2041 0.625525 18.7051 2.11139C18.7055 2.1118 18.7059 2.11221 18.7063 2.11262L19.8721 3.27607C20.5047 3.90819 21.3661 4.27435 22.2762 4.27435H23.9254C26.0321 4.27435 27.7449 5.9862 27.7449 8.08896V9.73863C27.7449 10.6459 28.109 11.5073 28.7426 12.1405L29.8954 13.2925Z" fill="#007FFF" stroke="white" stroke-width="2"/>
<path d="M14.421 20.2872L10 15.8662L11.7371 14.129L14.421 16.8129L21.2339 10L22.971 11.7372L14.421 20.2872Z" fill="white"/>
</g>
<defs>
<clipPath id="clip0_14_5">
<rect width="32" height="32" fill="white"/>
</clipPath>
</defs>
</svg>
